<?xml version="1.0" encoding="utf-8"?>
<!-- Generator: Adobe Illustrator 25.2.3, SVG Export Plug-In . SVG Version: 6.00 Build 0)  -->
<svg version="1.1" id="Layer_1" xmlns="http://www.w3.org/2000/svg" xmlns:xlink="http://www.w3.org/1999/xlink" x="0px" y="0px"
	 viewBox="0 0 1069.48 418.18" style="enable-background:new 0 0 1069.48 418.18;" xml:space="preserve">
<g>
	<path d="M88.53,8.82v21.41c-8.03-3.44-14.9-5.16-20.63-5.16c-4.27,0-7.81,0.86-10.63,2.58c-2.81,1.72-4.58,3.7-5.31,5.94
		c-0.73,2.24-1.09,8.21-1.09,17.9l-0.02,22.97h35.49v18.91h-35.5l-0.12,151.1H28.84V93.36H6.49V74.45h22.35V47.89
		c0-12.19,1.12-20.88,3.36-26.09c2.24-5.21,6.04-9.4,11.4-12.58s11.85-4.77,19.45-4.77C70.14,4.44,78.63,5.91,88.53,8.82z"/>
	<path d="M110.72,74.45h22.35V99.3c6.67-9.79,13.7-17.11,21.1-21.95c7.39-4.85,15.1-7.27,23.12-7.27c6.04,0,12.5,1.93,19.38,5.78
		L185.25,94.3c-4.58-1.98-8.43-2.97-11.56-2.97c-7.29,0-14.33,3-21.1,8.99c-6.77,5.99-11.93,15.29-15.47,27.89
		c-2.71,9.69-4.06,29.28-4.06,58.75v57.51h-22.35V74.45z"/>
	<path d="M295.73,70.08c26.2,0,47.9,9.48,65.12,28.44c15.65,17.29,23.48,37.77,23.48,61.41c0,23.75-8.27,44.51-24.81,62.27
		c-16.54,17.76-37.8,26.65-63.79,26.65c-26.09,0-47.4-8.88-63.95-26.65c-16.54-17.76-24.81-38.52-24.81-62.27
		c0-23.54,7.83-43.96,23.48-61.25C247.67,79.61,269.43,70.08,295.73,70.08z M295.65,91.49c-18.19,0-33.82,6.72-46.89,20.16
		c-13.07,13.44-19.6,29.69-19.6,48.75c0,12.29,2.98,23.75,8.94,34.38c5.96,10.63,14.01,18.83,24.15,24.61
		c10.14,5.78,21.27,8.67,33.4,8.67s23.26-2.89,33.4-8.67c10.14-5.78,18.19-13.98,24.15-24.61c5.96-10.62,8.94-22.09,8.94-34.38
		c0-19.06-6.56-35.32-19.68-48.75C329.34,98.2,313.74,91.49,295.65,91.49z"/>
	<path d="M510.28,93.05l-14.07,14.54c-11.7-11.35-23.14-17.03-34.31-17.03c-7.11,0-13.19,2.34-18.26,7.03
		c-5.07,4.69-7.6,10.16-7.6,16.41c0,5.52,2.09,10.78,6.26,15.78c4.18,5.1,12.95,11.09,26.31,17.97
		c16.29,8.44,27.35,16.56,33.2,24.38c5.74,7.91,8.61,16.82,8.61,26.72c0,13.96-4.9,25.78-14.71,35.47
		c-9.8,9.69-22.07,14.54-36.78,14.54c-9.81,0-19.17-2.14-28.09-6.41c-8.92-4.27-16.3-10.15-22.15-17.65l13.76-15.63
		c11.17,12.61,23.02,18.91,35.55,18.91c8.77,0,16.23-2.81,22.39-8.43c6.16-5.63,9.24-12.24,9.24-19.85c0-6.25-2.03-11.82-6.11-16.72
		c-4.07-4.79-13.26-10.83-27.56-18.13c-15.35-7.91-25.79-15.73-31.32-23.44c-5.53-7.71-8.3-16.51-8.3-26.41
		c0-12.92,4.4-23.65,13.23-32.19c8.82-8.54,19.95-12.82,33.42-12.82C478.66,70.08,494.42,77.74,510.28,93.05z"/>
	<path d="M568.09,11.32h21.88v63.13h34.7v18.91h-34.7v151.1h-21.88V93.36h-29.85V74.45h29.85V11.32z"/>
</g>
<g>
	<g>
		<path d="M7.67,325.24h10.94v14.69c3.81-5.42,7.72-9.37,11.73-11.88c5.53-3.33,11.34-5,17.44-5c4.12,0,8.03,0.81,11.73,2.42
			c3.7,1.61,6.73,3.76,9.08,6.44c2.34,2.69,4.38,6.52,6.1,11.52c3.64-6.67,8.18-11.73,13.64-15.19c5.46-3.47,11.33-5.2,17.61-5.2
			c5.88,0,11.06,1.48,15.55,4.45c4.49,2.97,7.83,7.11,10.01,12.42c2.18,5.31,3.27,13.28,3.27,23.91v46.41h-11.17v-46.41
			c0-9.11-0.65-15.38-1.95-18.79c-1.3-3.41-3.52-6.16-6.66-8.24c-3.14-2.08-6.89-3.13-11.25-3.13c-5.29,0-10.14,1.56-14.52,4.69
			c-4.39,3.13-7.59,7.3-9.62,12.5c-2.02,5.21-3.03,13.91-3.03,26.1v33.28H65.64v-43.52c0-10.26-0.64-17.23-1.91-20.9
			c-1.28-3.67-3.5-6.61-6.68-8.83c-3.17-2.21-6.95-3.32-11.32-3.32c-5.06,0-9.78,1.53-14.18,4.57c-4.4,3.05-7.65,7.15-9.77,12.31
			c-2.11,5.16-3.17,13.04-3.17,23.67v36.02H7.67V325.24z"/>
		<path d="M229.4,382.05l9.22,4.84c-3.03,5.94-6.52,10.73-10.48,14.38c-3.96,3.65-8.42,6.42-13.37,8.32s-10.56,2.85-16.81,2.85
			c-13.87,0-24.71-4.54-32.53-13.63c-7.82-9.09-11.73-19.36-11.73-30.82c0-10.78,3.31-20.39,9.93-28.83
			c8.4-10.73,19.63-16.09,33.7-16.09c14.5,0,26.07,5.49,34.72,16.48c6.16,7.77,9.28,17.45,9.38,29.07h-76.49
			c0.2,9.88,3.36,17.97,9.46,24.29c6.1,6.31,13.64,9.47,22.61,9.47c4.33,0,8.54-0.75,12.63-2.25c4.1-1.5,7.58-3.5,10.45-6
			C222.96,391.62,226.07,387.59,229.4,382.05z M229.4,359.15c-1.46-5.84-3.58-10.5-6.37-13.99c-2.79-3.49-6.48-6.3-11.07-8.44
			c-4.59-2.13-9.41-3.2-14.47-3.2c-8.35,0-15.52,2.68-21.52,8.05c-4.38,3.91-7.69,9.77-9.93,17.58H229.4z"/>
		<path d="M346.52,325.24v85.01h-10.78v-14.61c-4.58,5.58-9.73,9.77-15.43,12.58c-5.7,2.81-11.94,4.22-18.71,4.22
			c-12.03,0-22.31-4.36-30.82-13.09c-8.52-8.72-12.77-19.34-12.77-31.84c0-12.24,4.29-22.71,12.89-31.41
			c8.59-8.69,18.94-13.04,31.02-13.04c6.98,0,13.3,1.48,18.95,4.45c5.65,2.97,10.62,7.42,14.88,13.36v-15.63H346.52z M302.81,333.6
			c-6.09,0-11.71,1.5-16.86,4.49c-5.15,2.99-9.25,7.2-12.29,12.61c-3.05,5.41-4.57,11.13-4.57,17.17c0,5.99,1.54,11.71,4.6,17.17
			c3.07,5.47,7.19,9.72,12.37,12.76c5.17,3.05,10.73,4.57,16.66,4.57c5.98,0,11.65-1.51,17.01-4.53c5.36-3.02,9.48-7.1,12.37-12.25
			c2.89-5.15,4.33-10.95,4.33-17.4c0-9.83-3.24-18.05-9.72-24.66C320.25,336.91,312.28,333.6,302.81,333.6z"/>
		<path d="M455.99,292.43v117.82h-10.78v-14.61c-4.59,5.58-9.73,9.77-15.43,12.58c-5.7,2.81-11.94,4.22-18.71,4.22
			c-12.03,0-22.31-4.36-30.82-13.09c-8.52-8.72-12.77-19.34-12.77-31.84c0-12.24,4.29-22.71,12.89-31.41
			c8.59-8.69,18.94-13.04,31.02-13.04c6.97,0,13.29,1.48,18.95,4.45c5.65,2.97,10.61,7.42,14.88,13.36v-48.44H455.99z M412.27,333.6
			c-6.09,0-11.71,1.5-16.86,4.49c-5.15,2.99-9.25,7.2-12.29,12.61c-3.05,5.41-4.57,11.13-4.57,17.17c0,5.99,1.54,11.71,4.6,17.17
			c3.07,5.47,7.2,9.72,12.37,12.76c5.18,3.05,10.73,4.57,16.66,4.57c5.99,0,11.66-1.51,17.01-4.53c5.36-3.02,9.48-7.1,12.37-12.25
			c2.89-5.15,4.33-10.95,4.33-17.4c0-9.83-3.24-18.05-9.72-24.66C429.71,336.91,421.74,333.6,412.27,333.6z"/>
		<path d="M520.99,323.06c13.1,0,23.95,4.74,32.56,14.22c7.83,8.65,11.74,18.89,11.74,30.71c0,11.88-4.13,22.26-12.41,31.14
			c-8.27,8.88-18.9,13.32-31.89,13.32c-13.04,0-23.7-4.44-31.97-13.32c-8.27-8.88-12.41-19.26-12.41-31.14
			c0-11.77,3.91-21.98,11.74-30.62C496.96,327.82,507.84,323.06,520.99,323.06z M520.96,333.76c-9.1,0-16.91,3.36-23.44,10.08
			s-9.8,14.85-9.8,24.38c0,6.15,1.49,11.87,4.47,17.19c2.98,5.31,7,9.41,12.08,12.3c5.06,2.89,10.63,4.34,16.7,4.34
			c6.06,0,11.63-1.45,16.69-4.34c5.07-2.89,9.1-6.99,12.08-12.3c2.97-5.32,4.47-11.04,4.47-17.19c0-9.53-3.28-17.66-9.84-24.38
			C537.79,337.12,530,333.76,520.96,333.76z"/>
		<path d="M574.04,325.24h11.25l26.05,61.72l27.13-61.72h1.99l27.3,61.72l26.55-61.72h11.37l-36.92,85.01h-2.03l-27.18-60.86
			l-27.17,60.86h-2.03L574.04,325.24z"/>
		<path d="M801.01,342.9l-8.69,5.39c-7.49-9.95-17.71-14.92-30.66-14.92c-10.35,0-18.95,3.33-25.8,9.99
			c-6.83,6.66-10.25,14.75-10.25,24.27c0,6.19,1.57,12.02,4.72,17.48c3.14,5.46,7.46,9.7,12.95,12.72
			c5.48,3.02,11.63,4.53,18.46,4.53c12.47,0,22.68-4.97,30.57-14.92l8.69,5.7c-4.07,6.12-9.53,10.87-16.38,14.24
			c-6.85,3.38-14.64,5.06-23.39,5.06c-13.44,0-24.58-4.27-33.44-12.82c-8.87-8.54-13.29-18.93-13.29-31.17
			c0-8.23,2.07-15.87,6.21-22.93c4.13-7.06,9.83-12.57,17.07-16.53c7.24-3.96,15.33-5.94,24.31-5.94c5.62,0,11.05,0.86,16.27,2.58
			c5.24,1.72,9.68,3.96,13.33,6.72C795.35,335.11,798.45,338.63,801.01,342.9z"/>
		<path d="M817.88,325.24h11.18v12.42c3.33-4.9,6.84-8.56,10.55-10.98s7.55-3.63,11.56-3.63c3.02,0,6.26,0.96,9.69,2.89l-5.7,9.22
			c-2.3-0.99-4.22-1.49-5.78-1.49c-3.65,0-7.16,1.5-10.56,4.49c-3.38,3-5.96,7.64-7.73,13.94c-1.36,4.85-2.03,14.64-2.03,29.38
			v28.75h-11.18V325.24z"/>
		<path d="M910.39,323.06c13.1,0,23.94,4.74,32.55,14.22c7.83,8.65,11.75,18.89,11.75,30.71c0,11.88-4.15,22.26-12.41,31.14
			c-8.27,8.88-18.9,13.32-31.89,13.32c-13.04,0-23.71-4.44-31.98-13.32c-8.27-8.88-12.4-19.26-12.4-31.14
			c0-11.77,3.91-21.98,11.74-30.62C886.36,327.82,897.24,323.06,910.39,323.06z M910.35,333.76c-9.1,0-16.91,3.36-23.45,10.08
			c-6.53,6.72-9.79,14.85-9.79,24.38c0,6.15,1.48,11.87,4.47,17.19c2.98,5.31,7.01,9.41,12.07,12.3c5.07,2.89,10.64,4.34,16.7,4.34
			c6.07,0,11.63-1.45,16.7-4.34c5.07-2.89,9.1-6.99,12.08-12.3c2.97-5.32,4.47-11.04,4.47-17.19c0-9.53-3.28-17.66-9.84-24.38
			C927.19,337.12,919.39,333.76,910.35,333.76z"/>
		<path d="M1009.93,292.43v10.71c-4.01-1.72-7.45-2.58-10.31-2.58c-2.13,0-3.9,0.43-5.31,1.29c-1.41,0.86-2.3,1.85-2.66,2.97
			c-0.36,1.12-0.54,4.1-0.54,8.94l-0.01,11.48h17.74v9.46h-17.75l-0.06,75.55h-10.94V334.7h-11.18v-9.46h11.18v-13.28
			c0-6.09,0.56-10.44,1.68-13.05c1.12-2.6,3.02-4.7,5.7-6.29c2.69-1.59,5.92-2.38,9.73-2.38
			C1000.74,290.24,1004.99,290.97,1009.93,292.43z"/>
		<path d="M1034.7,293.68h10.94v31.56h17.34v9.46h-17.34v75.55h-10.94V334.7h-14.92v-9.46h14.92V293.68z"/>
	</g>
</g>
</svg>
